<?xml version="1.0" encoding="UTF-8"?>
<svg id="Layer_2" data-name="Layer 2" xmlns="http://www.w3.org/2000/svg" viewBox="0 0 641.65 240.6">
  <defs>
    <style>
      .cls-1 {
        fill: #fff;
      }

      .cls-2 {
        fill: #207d7f;
      }
    </style>
  </defs>
  <g id="Layer_1-2" data-name="Layer 1">
    <g>
      <g>
        <rect class="cls-1" x="120.43" y="220.39" width="10.45" height="10.45" rx="5.23" ry="5.23"/>
        <rect class="cls-1" x="335.52" y="220.39" width="10.45" height="10.45" rx="5.23" ry="5.23"/>
        <path class="cls-1" d="M11.01,240.5c-2.2,0-4.12-.36-5.74-1.07-1.62-.71-2.89-1.73-3.8-3.06C.57,235.04.08,233.46,0,231.64h4.44c.08,1.1.41,2.02,1,2.76.59.74,1.36,1.3,2.33,1.68.96.38,2.04.57,3.23.57,1.25,0,2.36-.2,3.34-.59.97-.39,1.73-.94,2.29-1.64.55-.7.83-1.53.83-2.46,0-.83-.23-1.52-.69-2.06-.46-.54-1.11-1-1.94-1.37-.83-.37-1.8-.7-2.91-.99l-3.38-.88c-2.5-.67-4.42-1.62-5.76-2.88-1.34-1.25-2.01-2.88-2.01-4.89,0-1.68.45-3.16,1.34-4.42.89-1.27,2.12-2.25,3.68-2.94,1.56-.7,3.33-1.05,5.31-1.05,2.02,0,3.8.36,5.32,1.07,1.53.71,2.72,1.69,3.58,2.93.86,1.25,1.32,2.68,1.37,4.31h-4.32c-.13-1.41-.74-2.5-1.84-3.29-1.1-.78-2.49-1.17-4.19-1.17-1.17,0-2.2.19-3.07.56-.87.37-1.55.88-2.03,1.54s-.72,1.39-.72,2.23.26,1.59.78,2.15c.52.56,1.19,1.01,2,1.35s1.66.63,2.53.86l2.9.74c1.04.26,2.07.6,3.07,1.02,1,.42,1.91.95,2.72,1.58s1.45,1.41,1.93,2.33c.48.91.71,2,.71,3.25,0,1.67-.43,3.15-1.28,4.44-.85,1.29-2.09,2.3-3.71,3.03-1.62.73-3.56,1.1-5.83,1.1Z"/>
        <path class="cls-1" d="M35.37,240.03v-11.62s-10.76-17.53-10.76-17.53h5.16s5.5,9.27,5.5,9.27c.59.99,1.12,1.95,1.59,2.88.48.93.96,2.03,1.46,3.31h-1.43c.5-1.29.98-2.41,1.46-3.35s.99-1.88,1.56-2.84l5.44-9.27h5.13s-10.68,17.53-10.68,17.53v11.62s-4.42,0-4.42,0Z"/>
        <path class="cls-1" d="M54.41,240.19v-29.15s5.09,0,5.09,0l10.99,17.41c.35.53.75,1.19,1.19,1.97.44.78.92,1.64,1.42,2.6s.99,1.98,1.48,3.06l-.53.21c-.09-1.03-.17-2.08-.22-3.15-.06-1.07-.1-2.07-.12-3.01-.02-.94-.03-1.71-.03-2.33v-16.77s4.48,0,4.48,0v29.15s-5.11,0-5.11,0l-9.86-15.57c-.47-.77-.96-1.58-1.46-2.43-.5-.85-1.06-1.83-1.68-2.95-.62-1.12-1.35-2.46-2.2-4.01l.68-.2c.08,1.45.14,2.79.2,4.03.05,1.24.09,2.33.13,3.28.03.95.05,1.7.05,2.26v15.59s-4.5,0-4.5,0Z"/>
        <path class="cls-1" d="M96.54,240.6c-2.56,0-4.83-.61-6.83-1.82-2-1.21-3.56-2.94-4.7-5.17-1.13-2.24-1.7-4.89-1.7-7.97s.57-5.76,1.71-8,2.71-3.97,4.71-5.18c2-1.21,4.27-1.82,6.81-1.82,1.55,0,3.01.23,4.36.68,1.36.45,2.57,1.1,3.64,1.96,1.07.85,1.96,1.89,2.66,3.12.7,1.23,1.18,2.62,1.43,4.17h-4.48c-.2-.95-.52-1.79-.98-2.51-.46-.72-1.02-1.34-1.69-1.84-.67-.5-1.42-.88-2.25-1.13s-1.71-.38-2.65-.38c-1.72,0-3.25.43-4.59,1.29-1.34.86-2.38,2.11-3.14,3.74-.76,1.63-1.13,3.61-1.13,5.93s.38,4.3,1.14,5.93c.76,1.63,1.81,2.87,3.15,3.72,1.34.85,2.86,1.27,4.57,1.27.93,0,1.8-.13,2.63-.38s1.58-.63,2.25-1.12c.67-.5,1.24-1.11,1.7-1.84s.79-1.56.99-2.5h4.48c-.22,1.46-.68,2.79-1.37,4-.69,1.21-1.56,2.25-2.62,3.14-1.06.89-2.27,1.57-3.64,2.04-1.37.48-2.86.71-4.46.71Z"/>
        <path class="cls-1" d="M142.67,240.19l10.43-29.15h5.42s10.54,29.15,10.54,29.15h-4.79s-5.67-16.26-5.67-16.26c-.44-1.34-.93-2.89-1.46-4.65-.53-1.75-1.14-3.88-1.85-6.37h.98c-.69,2.5-1.3,4.64-1.82,6.42-.52,1.77-1,3.31-1.43,4.6l-5.56,16.26h-4.79ZM148.37,232.54v-3.72s15.02,0,15.02,0v3.72s-15.02,0-15.02,0Z"/>
        <path class="cls-1" d="M173.02,240.19v-29.15s5.09,0,5.09,0l10.99,17.41c.35.53.75,1.19,1.19,1.97.44.78.92,1.64,1.42,2.6s.99,1.98,1.48,3.06l-.53.21c-.09-1.03-.17-2.08-.22-3.15-.06-1.07-.1-2.07-.12-3.01-.02-.94-.03-1.71-.03-2.33v-16.77s4.48,0,4.48,0v29.15s-5.11,0-5.11,0l-9.86-15.57c-.47-.77-.96-1.58-1.46-2.43-.5-.85-1.06-1.83-1.68-2.95-.62-1.12-1.35-2.46-2.2-4.01l.68-.2c.08,1.45.14,2.79.2,4.03.05,1.24.09,2.33.13,3.28.03.95.05,1.7.05,2.26v15.59s-4.5,0-4.5,0Z"/>
        <path class="cls-1" d="M200.7,240.19l10.43-29.15h5.42s10.54,29.15,10.54,29.15h-4.79s-5.67-16.26-5.67-16.26c-.44-1.34-.93-2.89-1.46-4.65-.53-1.75-1.14-3.88-1.85-6.37h.98c-.69,2.5-1.3,4.64-1.82,6.42-.52,1.77-1,3.31-1.43,4.6l-5.56,16.26h-4.79ZM206.39,232.54v-3.72s15.02,0,15.02,0v3.72s-15.02,0-15.02,0Z"/>
        <path class="cls-1" d="M231.04,240.19v-29.15s4.46,0,4.46,0v25.31h13.3s0,3.83,0,3.83h-17.76Z"/>
        <path class="cls-1" d="M259.19,240.19v-11.62s-10.76-17.53-10.76-17.53h5.16s5.5,9.27,5.5,9.27c.59.99,1.12,1.95,1.59,2.88s.96,2.03,1.46,3.31h-1.43c.5-1.29.98-2.41,1.46-3.35s.99-1.88,1.56-2.84l5.44-9.27h5.13s-10.68,17.53-10.68,17.53v11.62s-4.42,0-4.42,0Z"/>
        <path class="cls-1" d="M277.29,240.19v-3.07s13.03-18.47,13.03-18.47c.64-.9,1.32-1.8,2.04-2.7.73-.9,1.46-1.8,2.2-2.7l.45,1.47c-1.21.08-2.43.12-3.66.14-1.23.01-2.45.02-3.66.02h-10.39s0-3.83,0-3.83h21.13s0,3.09,0,3.09l-12.79,18.16c-.69.95-1.42,1.9-2.17,2.86s-1.52,1.9-2.29,2.84l-.45-1.47c1.23-.08,2.45-.12,3.67-.14,1.22-.01,2.44-.02,3.67-.02h10.51s0,3.83,0,3.83h-21.28Z"/>
        <path class="cls-1" d="M303.72,240.19v-29.15s18.64,0,18.64,0v3.83s-14.18,0-14.18,0v8.67h13.17s0,3.8,0,3.8h-13.17v9.02h14.28s0,3.83,0,3.83h-18.74Z"/>
        <path class="cls-1" d="M359.04,240.19v-29.15s18.33,0,18.33,0v3.83s-13.87,0-13.87,0v9.23h12.6s0,3.8,0,3.8h-12.6v12.29s-4.46,0-4.46,0Z"/>
        <path class="cls-1" d="M386.88,211.04v29.15s-4.46,0-4.46,0v-29.15s4.46,0,4.46,0Z"/>
        <path class="cls-1" d="M390.89,240.19l11.6-16.55v3.31s-10.86-15.9-10.86-15.9h5.15s3.87,5.77,3.87,5.77c.57.85,1.06,1.6,1.46,2.26.4.66.77,1.3,1.11,1.94.35.63.72,1.33,1.12,2.08h-.94c.42-.76.8-1.45,1.14-2.07.35-.63.72-1.27,1.14-1.94.41-.67.9-1.42,1.48-2.27l3.95-5.77h5.01s-10.78,15.71-10.78,15.71v-3.25s11.44,16.69,11.44,16.69h-5.18s-4.77-6.98-4.77-6.98c-.51-.77-.95-1.44-1.31-2.02-.37-.57-.71-1.14-1.03-1.7-.32-.56-.67-1.2-1.07-1.92h.84c-.38.69-.73,1.32-1.06,1.88-.33.56-.68,1.14-1.05,1.72-.37.59-.82,1.27-1.36,2.03l-4.83,6.98h-5.09Z"/>
        <path class="cls-1" d="M452.08,240.19v-29.15s18.64,0,18.64,0v3.83s-14.18,0-14.18,0v8.67h13.17s0,3.8,0,3.8h-13.17v9.02h14.28s0,3.83,0,3.83h-18.74Z"/>
        <path class="cls-1" d="M476.13,240.19v-29.15s5.09,0,5.09,0l10.99,17.41c.35.53.75,1.19,1.19,1.97.44.78.92,1.64,1.42,2.6.5.96.99,1.98,1.48,3.06l-.53.21c-.09-1.03-.17-2.08-.23-3.15-.06-1.07-.1-2.07-.12-3.01s-.03-1.71-.03-2.33v-16.77s4.48,0,4.48,0v29.15s-5.11,0-5.11,0l-9.86-15.57c-.47-.77-.96-1.58-1.46-2.43-.5-.85-1.06-1.83-1.68-2.95-.62-1.12-1.35-2.46-2.2-4.01l.68-.2c.08,1.45.14,2.79.2,4.03s.09,2.33.13,3.28c.03.95.05,1.7.05,2.26v15.59s-4.5,0-4.5,0Z"/>
        <path class="cls-1" d="M506.06,240.19v-29.15s4.46,0,4.46,0v12.32h14.44v-12.32s4.44,0,4.44,0v29.15s-4.44,0-4.44,0v-12.99h-14.44v12.99s-4.46,0-4.46,0Z"/>
        <path class="cls-1" d="M533.33,240.19l10.43-29.15h5.42s10.54,29.15,10.54,29.15h-4.79s-5.67-16.26-5.67-16.26c-.44-1.34-.93-2.89-1.46-4.65-.53-1.75-1.14-3.88-1.85-6.37h.98c-.69,2.5-1.3,4.64-1.82,6.42-.52,1.77-1,3.31-1.43,4.6l-5.56,16.26h-4.79ZM539.02,232.54v-3.72s15.02,0,15.02,0v3.72s-15.02,0-15.02,0Z"/>
        <path class="cls-1" d="M563.67,240.03v-29.15s5.09,0,5.09,0l10.99,17.41c.35.53.75,1.19,1.19,1.97.44.78.92,1.64,1.42,2.6.5.96.99,1.98,1.48,3.06l-.53.21c-.09-1.03-.17-2.08-.23-3.15-.06-1.07-.1-2.07-.12-3.01-.02-.94-.03-1.71-.03-2.33v-16.77s4.48,0,4.48,0v29.15s-5.11,0-5.11,0l-9.86-15.57c-.47-.77-.96-1.58-1.46-2.43-.5-.85-1.06-1.83-1.68-2.95-.62-1.12-1.35-2.46-2.2-4.01l.68-.2c.08,1.45.14,2.79.2,4.03.05,1.24.09,2.33.13,3.28.03.95.05,1.7.05,2.26v15.59s-4.5,0-4.5,0Z"/>
        <path class="cls-1" d="M605.81,240.44c-2.56,0-4.83-.61-6.83-1.82-2-1.21-3.56-2.94-4.7-5.17-1.13-2.24-1.7-4.89-1.7-7.97s.57-5.76,1.71-8c1.14-2.24,2.71-3.97,4.71-5.18,1.99-1.21,4.26-1.82,6.81-1.82,1.55,0,3.01.23,4.36.68,1.36.45,2.57,1.1,3.64,1.96,1.07.85,1.96,1.89,2.66,3.12.7,1.23,1.18,2.62,1.43,4.17h-4.48c-.2-.95-.52-1.79-.98-2.51-.46-.72-1.02-1.34-1.69-1.84-.67-.5-1.42-.88-2.25-1.13-.83-.25-1.71-.38-2.65-.38-1.72,0-3.25.43-4.59,1.29-1.34.86-2.38,2.11-3.14,3.74-.76,1.63-1.13,3.61-1.13,5.93,0,2.32.38,4.3,1.14,5.93.76,1.63,1.81,2.87,3.15,3.72,1.34.85,2.86,1.27,4.57,1.27.93,0,1.8-.13,2.63-.38.83-.25,1.58-.63,2.25-1.12.67-.5,1.24-1.11,1.7-1.84.46-.73.79-1.56.99-2.5h4.48c-.22,1.46-.68,2.79-1.37,4-.69,1.21-1.56,2.25-2.62,3.14-1.06.89-2.27,1.57-3.64,2.04-1.37.48-2.86.71-4.46.71Z"/>
        <path class="cls-1" d="M622.91,240.03v-29.15s18.64,0,18.64,0v3.83s-14.18,0-14.18,0v8.67h13.17s0,3.8,0,3.8h-13.17v9.02h14.28s0,3.83,0,3.83h-18.74Z"/>
        <rect class="cls-1" x="425.16" y="220.39" width="10.45" height="10.45" rx="5.23" ry="5.23"/>
      </g>
      <g>
        <path class="cls-1" d="M64.1,175.93c-11.39,0-22.47-2.16-32.04-6.24C11.85,161.09.17,144.28.02,123.58l-.02-2.92h34.45l.5,2.27c2.08,9.39,10.6,20.35,27.76,20.35,6.69,0,13.07-2,17.51-5.5,3.14-2.39,5.18-6.54,5.51-11.12.32-4.49-1.01-8.6-3.65-11.28-2.74-2.88-6.2-5.17-10.3-6.83-4.78-1.75-10-3.33-15.54-5.02C29.53,95.42-.76,86.21.5,51.32c-.15-13.04,4.38-24.61,13.12-33.47C24.82,6.51,42.36,0,61.73,0c15.91,0,30.87,4.41,42.11,12.43,12.88,9.18,19.89,22.29,20.26,37.9l.07,2.97h-36.38l-.2-2.69c-.91-12.2-13.63-17.76-25.07-17.76-6.8,0-12.92,1.84-16.78,5.05-2.74,2.16-4.6,6.48-4.78,11.07-.17,4.24,1.09,7.92,3.46,10.11,7.14,6.72,19.88,10.5,32.2,14.15,8.57,2.54,16.68,4.95,22.8,8.29,11.72,4.98,20.38,14.65,24.39,27.24,4.35,13.69,2.48,28.56-5.14,40.8-9.7,16.49-30.12,26.37-54.58,26.37Z"/>
        <g>
          <rect class="cls-1" x="561.96" y="-44.45" width="35.24" height="124.14" transform="translate(597.2 -561.96) rotate(90)"/>
          <rect class="cls-1" x="561.96" y="25.9" width="35.24" height="124.14" transform="translate(667.55 -491.61) rotate(90)"/>
          <rect class="cls-1" x="561.96" y="96.24" width="35.24" height="124.14" transform="translate(737.9 -421.27) rotate(90)"/>
        </g>
        <g>
          <rect class="cls-1" x="358.13" y="0" width="124.14" height="35.24"/>
          <polygon class="cls-1" points="358.13 70.35 358.13 105.59 358.13 175.93 393.37 175.93 393.37 105.59 482.27 105.59 482.27 70.35 393.37 70.35 358.13 70.35"/>
        </g>
        <g>
          <path class="cls-2" d="M240.13,41.14c5.28,4.36,11.42,10.11,17.63,17.35,15.11,17.64,25.8,38.2,31.96,61.41-15,2.9-32.52,7.89-49.59,16.48-17.06-8.58-34.59-13.58-49.59-16.48,6.16-23.21,16.85-43.77,31.96-61.41,6.21-7.24,12.35-12.99,17.63-17.35M240.13,0s-80.11,40.04-89.01,149.92c0,0,.3,0,.88,0,6.93,0,53.21.97,88.13,26.02,34.92-25.06,81.2-26.02,88.13-26.02.58,0,.88,0,.88,0C320.24,40.04,240.13,0,240.13,0h0Z"/>
          <g>
            <path class="cls-1" d="M250.5,84.04v-7.67c0-5.72-4.65-10.37-10.37-10.37s-10.37,4.65-10.37,10.37v7.67c-5.04,3.36-8.37,9.09-8.37,15.59,0,10.34,8.41,18.75,18.74,18.75s18.75-8.41,18.75-18.75c0-6.5-3.33-12.23-8.37-15.59ZM233.51,76.38c0-3.65,2.97-6.61,6.61-6.61s6.61,2.97,6.61,6.61v5.72c-2.06-.78-4.29-1.21-6.61-1.21s-4.55.43-6.61,1.21v-5.72ZM240.13,114.62c-8.26,0-14.98-6.72-14.98-14.98s6.72-14.98,14.98-14.98,14.98,6.72,14.98,14.98-6.72,14.98-14.98,14.98Z"/>
            <path class="cls-1" d="M240.12,93.07c-3.62,0-6.57,2.95-6.57,6.57,0,2.94,1.94,5.44,4.62,6.27v4.63c0,1.08.87,1.95,1.95,1.95s1.95-.87,1.95-1.95v-4.63c2.67-.83,4.62-3.33,4.62-6.27,0-3.62-2.95-6.57-6.57-6.57ZM240.12,102.98c-1.84,0-3.34-1.5-3.34-3.34s1.5-3.34,3.34-3.34,3.34,1.5,3.34,3.34-1.5,3.34-3.34,3.34Z"/>
          </g>
        </g>
      </g>
    </g>
  </g>
</svg>